<mxfile host="65bd71144e">
    <diagram name="Pagina-1" id="NUquWQlPmI8eoX9Fea6K">
        <mxGraphModel dx="848" dy="563" grid="0" gridSize="10" guides="1" tooltips="1" connect="1" arrows="1" fold="1" page="1" pageScale="1" pageWidth="827" pageHeight="1169" background="#ffffff" math="0" shadow="0">
            <root>
                <mxCell id="0"/>
                <mxCell id="1" parent="0"/>
                <mxCell id="cZa140cN37ZzZX85ZkgK-4" value="" style="edgeStyle=none;orthogonalLoop=1;jettySize=auto;html=1;rounded=0;strokeColor=#000000;sketch=1;curveFitting=1;jiggle=2;startArrow=none;entryX=0;entryY=0.5;entryDx=0;entryDy=0;" parent="1" edge="1" target="cZa140cN37ZzZX85ZkgK-5" source="cZa140cN37ZzZX85ZkgK-3">
                    <mxGeometry width="100" relative="1" as="geometry">
                        <mxPoint x="247" y="220.5" as="sourcePoint"/>
                        <mxPoint x="347" y="220.5" as="targetPoint"/>
                        <Array as="points"/>
                    </mxGeometry>
                </mxCell>
                <mxCell id="cZa140cN37ZzZX85ZkgK-5" value="&lt;font size=&quot;1&quot; face=&quot;Comic Sans MS&quot; color=&quot;#cc0000&quot;&gt;&lt;b style=&quot;font-size: 18px;&quot;&gt;N2&lt;/b&gt;&lt;/font&gt;" style="rounded=1;whiteSpace=wrap;html=1;strokeWidth=2;fillWeight=4;hachureGap=8;hachureAngle=45;fillColor=#FF8000;sketch=1;gradientColor=none;strokeColor=#000000;perimeterSpacing=0;opacity=50;" parent="1" vertex="1">
                    <mxGeometry x="528" y="191" width="120" height="60" as="geometry"/>
                </mxCell>
                <mxCell id="cZa140cN37ZzZX85ZkgK-7" style="edgeStyle=orthogonalEdgeStyle;rounded=0;orthogonalLoop=1;jettySize=auto;html=1;exitX=1;exitY=0.5;exitDx=0;exitDy=0;strokeColor=#000000;sketch=1;curveFitting=1;jiggle=2;" parent="1" source="cZa140cN37ZzZX85ZkgK-6" target="cZa140cN37ZzZX85ZkgK-3" edge="1">
                    <mxGeometry relative="1" as="geometry"/>
                </mxCell>
                <mxCell id="cZa140cN37ZzZX85ZkgK-6" value="&lt;font size=&quot;1&quot; face=&quot;Comic Sans MS&quot; color=&quot;#cc0000&quot;&gt;&lt;b style=&quot;font-size: 18px;&quot;&gt;NEW_NODE&lt;/b&gt;&lt;/font&gt;" style="rounded=1;whiteSpace=wrap;html=1;strokeWidth=2;fillWeight=4;hachureGap=8;hachureAngle=45;fillColor=#FF8000;sketch=1;gradientColor=none;strokeColor=#000000;perimeterSpacing=0;opacity=50;" parent="1" vertex="1">
                    <mxGeometry x="34" y="243" width="120" height="60" as="geometry"/>
                </mxCell>
                <mxCell id="cZa140cN37ZzZX85ZkgK-8" value="Successivamente new_node diventa il self.head" style="text;html=1;align=center;verticalAlign=middle;resizable=0;points=[];autosize=1;strokeColor=none;fillColor=none;fontFamily=Helvetica;fontSize=11;fontColor=default;labelBackgroundColor=default;" parent="1" vertex="1">
                    <mxGeometry x="76" y="370" width="252" height="25" as="geometry"/>
                </mxCell>
                <mxCell id="cZa140cN37ZzZX85ZkgK-9" value="&lt;font style=&quot;font-size: 14px;&quot; color=&quot;#000000&quot;&gt;Push&lt;/font&gt;" style="text;html=1;align=center;verticalAlign=middle;resizable=0;points=[];autosize=1;fontFamily=Helvetica;fontSize=11;labelBackgroundColor=#FFFFFF;fillColor=none;" parent="1" vertex="1">
                    <mxGeometry x="17" y="75" width="50" height="29" as="geometry"/>
                </mxCell>
                <mxCell id="cZa140cN37ZzZX85ZkgK-3" value="&lt;font size=&quot;1&quot; face=&quot;Comic Sans MS&quot; color=&quot;#cc0000&quot;&gt;&lt;b style=&quot;font-size: 18px;&quot;&gt;HEAD (N1)&lt;/b&gt;&lt;/font&gt;" style="rounded=1;whiteSpace=wrap;html=1;strokeWidth=2;fillWeight=4;hachureGap=8;hachureAngle=45;fillColor=#FF8000;sketch=1;gradientColor=none;strokeColor=#000000;perimeterSpacing=0;opacity=50;" parent="1" vertex="1">
                    <mxGeometry x="306" y="183" width="120" height="60" as="geometry"/>
                </mxCell>
            </root>
        </mxGraphModel>
    </diagram>
</mxfile>